<?xml version="1.0" encoding="UTF-8"?>
<svg version="1.1" xmlns="http://www.w3.org/2000/svg" width="512" height="512">
    <path d="M0 0 C0 30.36 0 60.72 0 92 C-7.92 92.495 -7.92 92.495 -16 93 C-29.54435319 96.55710286 -41.01797912 103.43692645 -52 112 C-52.84691406 112.65355469 -53.69382812 113.30710937 -54.56640625 113.98046875 C-72.20367959 127.99040421 -87.88704709 144.2078179 -101.53710938 162.09130859 C-103.09090111 164.11860228 -104.66059814 166.13271673 -106.234375 168.14453125 C-118.27666426 183.54176609 -130.15331168 199.06117216 -141.70654297 214.82910156 C-146.77943498 221.73766461 -151.96456691 228.55735004 -157.1730957 235.36401367 C-160.72167625 240.00280779 -164.24534196 244.65725971 -167.72705078 249.34643555 C-173.79210934 257.51124942 -180.13566697 265.41705677 -186.59130859 273.27539062 C-188.44017085 275.53888507 -190.25190745 277.83083305 -192.0625 280.125 C-203.2982473 294.181437 -215.08122709 308.5240099 -229 320 C-229.96292969 320.83917969 -230.92585938 321.67835938 -231.91796875 322.54296875 C-243.38614519 332.5198462 -255.65077008 340.75114442 -269 348 C-270.04027344 348.58523438 -271.08054687 349.17046875 -272.15234375 349.7734375 C-298.56053088 363.92182382 -325.2726915 367 -355 367 C-355 337.3 -355 307.6 -355 277 C-349.72 276.67 -344.44 276.34 -339 276 C-315.29696665 270.30215544 -297.42141882 256.77340968 -282.37890625 237.8828125 C-279.70055782 234.63712918 -276.87692818 231.56875348 -274 228.5 C-268.73618036 222.86538415 -263.78837437 217.04760085 -259 211 C-258.59491211 210.48920898 -258.18982422 209.97841797 -257.77246094 209.45214844 C-255.01577667 205.97212368 -252.2765167 202.47874641 -249.54492188 198.97900391 C-248.47681388 197.61078592 -247.40774079 196.243321 -246.33789062 194.87646484 C-239.69925489 186.39438874 -233.11485335 177.87845882 -226.67553711 169.24389648 C-222.53318751 163.69335191 -218.33236663 158.1888625 -214.125 152.6875 C-208.89155795 145.83949867 -203.7222464 138.94996273 -198.625 132 C-189.57129964 119.66560838 -180.18034456 107.65830711 -170.48828125 95.8203125 C-169.18590621 94.22738135 -167.88933968 92.6297048 -166.59375 91.03125 C-164.41052335 88.3417679 -162.20669104 85.6702494 -160 83 C-159.21625 82.02933594 -158.4325 81.05867188 -157.625 80.05859375 C-143.84602231 63.27216621 -127.84785062 46.45858521 -110 34 C-109.43120117 33.59217285 -108.86240234 33.1843457 -108.27636719 32.76416016 C-75.41660329 9.26592177 -40.10215447 0 0 0 Z " fill="#36BDB1" transform="translate(434,73)"/>
    <path d="M0 0 C3.47091523 1.6199106 5.38857835 3.37328996 7.9375 6.25 C23.78115831 22.32589434 53.56583448 23.8334994 74.78466797 24.0793457 C79.98158438 24.10957745 85.17811022 24.08781573 90.375 24.0625 C92.19010292 24.05747067 94.0052072 24.05291032 95.8203125 24.04882812 C100.21357608 24.03794598 104.60677246 24.02076194 109 24 C111.642109 36.0750932 111.642109 36.0750932 110 42 C108.3203125 44.59765625 108.3203125 44.59765625 106.125 47.0625 C105.3103125 48.00480469 104.495625 48.94710937 103.65625 49.91796875 C103.22183594 50.41603027 102.78742188 50.9140918 102.33984375 51.42724609 C100.00545746 54.16742766 97.82701812 57.02828755 95.625 59.875 C87.93899666 69.71642309 79.8468037 79.12571837 71.3984375 88.3203125 C69.01274879 90.98575624 66.74691266 93.71698186 64.5 96.5 C47.68302128 117.20238298 47.68302128 117.20238298 38.4375 118.5 C36.95334101 118.38605305 35.47351832 118.2108449 34 118 C33.01128906 117.8659375 32.02257812 117.731875 31.00390625 117.59375 C-5.72894078 111.36923189 -38.44198932 92.74675536 -64 66 C-62.35606624 61.78407069 -59.23644614 58.96977386 -56.08154297 55.85449219 C-55.47652954 55.24918671 -54.87151611 54.64388123 -54.24816895 54.02023315 C-52.25088001 52.0243355 -50.24660442 50.03561201 -48.2421875 48.046875 C-46.85455498 46.66297332 -45.4673639 45.27862888 -44.08059692 43.89385986 C-40.432074 40.2529678 -36.77758448 36.61812222 -33.12182617 32.98449707 C-29.39140211 29.27454312 -25.66664357 25.55891073 -21.94140625 21.84375 C-14.63314253 14.55692656 -7.31856384 7.27647735 0 0 Z " fill="#003366" transform="translate(66,197)"/>
    <path d="M0 0 C1.15628906 0.27505371 1.15628906 0.27505371 2.3359375 0.55566406 C37.18100285 9.00912034 64.99235539 25.44871095 90 51 C88.36634462 55.11588016 85.39978457 57.90288394 82.32861328 60.9777832 C81.45999161 61.85889015 81.45999161 61.85889015 80.57382202 62.75779724 C78.66142057 64.69426102 76.74147408 66.62301041 74.8203125 68.55078125 C73.48746116 69.89259779 72.1546884 71.23449239 70.82199097 72.57646179 C68.0297408 75.38519145 65.23313549 78.18950621 62.43408203 80.99145508 C58.84184032 84.58909667 55.26605324 88.20263537 51.69398689 91.82029438 C48.94867151 94.59528384 46.19223879 97.35901969 43.43255234 100.11971092 C42.10872583 101.44775457 40.78903757 102.77993635 39.47354507 104.11623573 C37.63730981 105.97919949 35.78607823 107.82584704 33.93017578 109.66918945 C33.1148941 110.50672256 33.1148941 110.50672256 32.28314209 111.36117554 C30.74539185 112.86933899 30.74539185 112.86933899 28 115 C25.14591278 114.91585251 24.35910601 114.33462151 22.28125 112.3984375 C21.6934375 111.73070312 21.105625 111.06296875 20.5 110.375 C11.32246005 100.94486721 -0.69681873 96.77392257 -13 93 C-13.85980469 92.73058594 -14.71960938 92.46117187 -15.60546875 92.18359375 C-29.56454307 88.6505891 -45.54506076 91.08686583 -59.65771484 92.28369141 C-67.80397236 92.9608178 -75.82860731 93.24271463 -84 93 C-84.31761304 91.66787539 -84.62873987 90.33420434 -84.9375 89 C-85.11152344 88.2575 -85.28554688 87.515 -85.46484375 86.75 C-85.64144531 85.8425 -85.81804687 84.935 -86 84 C-86.1448584 83.37883301 -86.2897168 82.75766602 -86.43896484 82.11767578 C-87.19900683 78.15884838 -87.2848365 76.52394236 -85.296875 72.8671875 C-84.45640625 71.87976563 -83.6159375 70.89234375 -82.75 69.875 C-81.81875637 68.75021028 -80.88777604 67.62520254 -79.95703125 66.5 C-79.46928223 65.92636719 -78.9815332 65.35273438 -78.47900391 64.76171875 C-76.5297436 62.43985306 -74.67471574 60.05118278 -72.81811523 57.6550293 C-70.98924296 55.29706153 -69.13690623 52.95809538 -67.28320312 50.61962891 C-66.11783805 49.14873243 -64.95709388 47.67417785 -63.796875 46.19921875 C-53.32486222 33.10920277 -41.65888701 20.98410353 -29 10 C-28.3901123 9.45698242 -27.78022461 8.91396484 -27.15185547 8.35449219 C-18.2636322 0.56137952 -12.04656805 -3.09818345 0 0 Z " fill="#003366" transform="translate(422,201)"/>
    <path d="M0 0 C4.21592931 1.64393376 7.03022614 4.76355386 10.14550781 7.91845703 C11.05346603 8.82597717 11.05346603 8.82597717 11.97976685 9.75183105 C13.9756645 11.74911999 15.96438799 13.75339558 17.953125 15.7578125 C19.33702668 17.14544502 20.72137112 18.5326361 22.10614014 19.91940308 C25.7470322 23.567926 29.38187778 27.22241552 33.01550293 30.87817383 C36.72545688 34.60859789 40.44108927 38.33335643 44.15625 42.05859375 C51.44307344 49.36685747 58.72352265 56.68143616 66 64 C64.38872287 67.44379759 62.65339062 69.38998879 59.8125 71.9375 C55.26220656 76.32864169 52.7828289 80.81871202 50.2890625 86.59375 C47.87833726 90.89705527 43.86541659 93.51506613 40.04931641 96.51464844 C35.34892607 100.34571117 31.10169197 104.6004645 26.83789062 108.90136719 C25.37586839 110.37412523 23.90342512 111.83585045 22.4296875 113.296875 C16.92525485 118.79400734 11.79012723 124.48290153 6.94726562 130.58129883 C5.07914273 132.90169671 3.13476191 135.11450938 1.125 137.3125 C-3.1911379 142.11484315 -7.12928812 147.18259523 -11.08984375 152.27734375 C-12.9960143 154.726853 -14.92394551 157.1556634 -16.87890625 159.56640625 C-25.84960014 170.62966159 -34.3658878 182.02559085 -42.59375 193.65234375 C-43.3053125 194.65394531 -44.016875 195.65554687 -44.75 196.6875 C-45.63945312 197.96173828 -45.63945312 197.96173828 -46.546875 199.26171875 C-47.26617187 200.12216797 -47.26617187 200.12216797 -48 201 C-48.66 201 -49.32 201 -50 201 C-57.89090098 142.09497762 -60.9418876 76.13749432 -23 26 C-22.59845703 25.45617676 -22.19691406 24.91235352 -21.78320312 24.35205078 C-15.21563227 15.4808921 -7.98553698 7.60925514 0 0 Z " fill="#003366" transform="translate(251,2)"/>
    <path d="M0 0 C2.81471722 2.81471722 2.67619879 5.78654707 3.0703125 9.58203125 C3.15662933 10.36683365 3.24294617 11.15163605 3.33187866 11.96022034 C3.61114871 14.57635966 3.87105681 17.19378458 4.125 19.8125 C4.21338135 20.71470276 4.3017627 21.61690552 4.39282227 22.54644775 C9.69484862 78.13114589 6.93801487 136.68587961 -29.5546875 182.1015625 C-35.40625497 189.03744599 -41.48927622 195.67768945 -48 202 C-52.17615799 200.36256066 -54.9648153 197.30218208 -58.05371094 194.17333984 C-58.64926285 193.57807999 -59.24481476 192.98282013 -59.8584137 192.36952209 C-61.82184643 190.40469823 -63.77810373 188.43288961 -65.734375 186.4609375 C-67.0958564 185.09572521 -68.45778061 183.73095439 -69.82012939 182.36660767 C-73.40183824 178.77726841 -76.9774999 175.1819632 -80.55194092 171.58538818 C-84.20157121 167.91528681 -87.85688092 164.25085171 -91.51171875 160.5859375 C-98.68005329 153.39616348 -105.842013 146.20007484 -113 139 C-112.03905167 137.87827615 -111.07801599 136.75662712 -110.11694336 135.63500977 C-109.31419228 134.6980703 -109.31419228 134.6980703 -108.495224 133.74220276 C-107.37640957 132.43858431 -106.2536512 131.13834888 -105.12890625 129.83984375 C-101.55423387 125.49853341 -99.12404128 121.25864142 -96.8125 116.125 C-93.85811869 109.82315443 -90.02487963 105.74949287 -84.71875 101.2421875 C-73.63954728 91.7926438 -62.93151333 81.06080974 -53.98828125 69.5546875 C-51.62540693 66.51869575 -49.12857681 63.60696775 -46.625 60.6875 C-40.88576063 53.94302114 -35.41194454 47.00849539 -30 40 C-29.49742676 39.35047363 -28.99485352 38.70094727 -28.47705078 38.03173828 C-20.29843613 27.44719897 -12.31944786 16.72219708 -4.41943359 5.9284668 C-2.95820119 3.94321143 -1.48187066 1.96988396 0 0 Z " fill="#003366" transform="translate(310,310)"/>
    <path d="M0 0 C1.70434204 -0.00108765 1.70434204 -0.00108765 3.44311523 -0.00219727 C12.90368976 0.06224905 12.90368976 0.06224905 15.875 1.1875 C17.25610352 2.62011719 17.25610352 2.62011719 18.50390625 4.484375 C18.97610596 5.1848999 19.44830566 5.8854248 19.93481445 6.60717773 C20.43070068 7.37618408 20.92658691 8.14519043 21.4375 8.9375 C21.95981201 9.73808838 22.48212402 10.53867676 23.02026367 11.36352539 C44.32236017 44.63741938 51.875 75.21627635 51.875 115.1875 C21.515 115.1875 -8.845 115.1875 -40.125 115.1875 C-40.455 108.9175 -40.785 102.6475 -41.125 96.1875 C-42.67685284 92.52852816 -42.67685284 92.52852816 -44.3359375 88.91796875 C-45.88211029 83.56759855 -44.91527883 77.97037317 -44.49609375 72.48046875 C-42.74101359 49.38979316 -45.1747637 26.18873914 -47.125 3.1875 C-42.61874371 0.93437186 -36.64412441 1.45391463 -31.6875 1.125 C-30.69281708 1.05821548 -30.69281708 1.05821548 -29.67803955 0.99008179 C-19.78398606 0.33790141 -9.9185775 0.00068052 0 0 Z " fill="#36BDB1" transform="translate(388.125,319.8125)"/>
    <path d="M0 0 C30.03 0 60.06 0 91 0 C91.495 9.405 91.495 9.405 92 19 C93.52999449 23.32403126 93.52999449 23.32403126 95.13574219 27.62011719 C96.99830357 34.90410019 96.34367883 42.61572292 96.1875 50.08340454 C96.0819933 55.2179438 96.0436598 60.35284943 96.0078125 65.48828125 C95.99599945 66.99303261 95.99599945 66.99303261 95.98394775 68.52818298 C95.93228389 79.27654003 96.7477193 89.86955548 97.8125 100.56103516 C98.10627069 104.38234921 98.06247995 108.1691981 98 112 C94.47632012 113.17455996 91.65619078 113.14633222 87.9375 113.16796875 C87.23785126 113.17211288 86.53820251 113.17625702 85.81735229 113.18052673 C83.54484839 113.1902144 81.2725214 113.19018387 79 113.1875 C77.84567474 113.18759064 77.84567474 113.18759064 76.66802979 113.18768311 C65.03390562 113.17460935 53.49916212 112.94453472 42 111 C40.9483667 110.82259277 40.9483667 110.82259277 39.87548828 110.64160156 C35.10591764 109.67519648 32.82610933 108.53299274 30.125 104.5 C28.70205294 102.35026393 27.33494935 100.2023974 26 98 C25.61054199 97.37029297 25.22108398 96.74058594 24.81982422 96.09179688 C6.49628572 66.09327652 0 34.84495282 0 0 Z " fill="#36BDB1" transform="translate(73,80)"/>
</svg>
